<?xml version="1.0" encoding="UTF-8" standalone="no"?>
<svg 
   xmlns:svg="http://www.w3.org/2000/svg"
   xmlns="http://www.w3.org/2000/svg"   
   id="droper1"
   viewBox="0 0 300 60"
   width="300"
   height="60"
   version="1.1">   
  <path
     style="fill:#ffffff;stroke-width:3.05883241"
     cx="50"
     cy="50"
     r="50"
     d="m 42.556621,-0.142576 c -0.583825,0 -1.132305,0.16513444 -1.651265,0.48741745 -0.486529,0.28200068 -0.910187,0.68294325 -1.266968,1.20665915 -0.356792,0.523716 -0.649629,1.1281001 -0.876673,1.8129576 -0.194607,0.6848575 -0.288221,1.3909579 -0.288221,2.1161069 V 16.233489 h -25.35139 c -1.556877,0 -3.015081,0.362623 -4.3773487,1.087772 C 7.3824876,18.006119 6.2015238,18.95398 5.196041,20.162553 4.190558,21.371127 3.3960466,22.78334 2.8122174,24.39477 2.2283885,26.0062 1.9355469,27.71763 1.9355469,29.530494 c 0,1.893431 0.3240449,3.668267 0.972744,5.319992 0.6486989,1.61143 1.5212196,3.017699 2.6240073,4.226273 1.1352232,1.208573 2.4530102,2.156434 3.9450176,2.841292 1.5244422,0.684854 3.1446692,1.028331 4.8637212,1.028331 h 32.83912 V 5.4805651 c 0,-0.7654313 -0.130814,-1.4906929 -0.390299,-2.1755473 C 46.562818,2.6201603 46.238769,2.0349343 45.817112,1.5515006 45.395458,1.0277847 44.893786,0.62684213 44.309961,0.34484145 43.758569,0.02256148 43.172884,-0.142576 42.556621,-0.142576 Z M 266.13764,16.697128 c -9.5734,0 -14.35698,4.081721 -14.35698,12.244899 v 8.79136 c 0,3.879558 1.96543,5.819297 5.90251,5.819297 1.57492,0 2.92212,-0.486371 4.0411,-1.456312 1.16038,-0.969886 1.74133,-2.2591 1.74133,-3.875567 V 27.794811 h 26.85854 c 2.36224,0 4.14219,-0.505425 5.34409,-1.515752 1.20185,-1.010266 1.80138,-2.324497 1.80138,-3.940955 0,-3.758391 -2.37947,-5.640976 -7.14547,-5.640976 z m -114.05124,0.07134 v 37.465817 c 0,0.765431 0.13082,1.490693 0.3903,2.175547 0.22704,0.684858 0.55109,1.270084 0.97274,1.753517 0.42166,0.523716 0.92333,0.924659 1.50716,1.20666 0.55139,0.32228 1.13107,0.487417 1.74733,0.487417 0.58384,0 1.13831,-0.165134 1.65727,-0.487417 0.48652,-0.282001 0.91018,-0.682944 1.26697,-1.20666 0.35678,-0.523716 0.64363,-1.1281 0.87066,-1.812957 0.19461,-0.684858 0.29422,-1.390958 0.29422,-2.116107 V 43.481359 h 25.34538 c 1.55689,0 3.02109,-0.362623 4.38337,-1.087772 1.36226,-0.684858 2.54322,-1.632719 3.54871,-2.841292 1.00547,-1.208574 1.79999,-2.620787 2.38382,-4.232217 0.58382,-1.61143 0.87667,-3.32286 0.87667,-5.135724 0,-1.893431 -0.32404,-3.668267 -0.97274,-5.319992 -0.6487,-1.61143 -1.52723,-3.017699 -2.63002,-4.226273 -1.13521,-1.208573 -2.447,-2.156434 -3.939,-2.841292 -1.52445,-0.684866 -3.14467,-1.028331 -4.86373,-1.028331 z m -85.505403,0.08917 c -9.430045,0 -14.146823,4.081721 -14.146823,12.244895 v 8.791361 c 0,3.879594 1.940267,5.819296 5.81845,5.819296 1.551291,0 2.878826,-0.486376 3.981046,-1.456308 1.142992,-0.96989 1.717315,-2.25911 1.717315,-3.875571 v -10.42601 h 26.450234 c 2.326822,0 4.082139,-0.505425 5.266026,-1.515752 1.183895,-1.010266 1.777359,-2.324485 1.777359,-3.940955 0,-3.758309 -2.348782,-5.640972 -7.043385,-5.640972 z m 46.349453,0 c -1.59652,0 -3.07647,0.328202 -4.4494,0.974835 -1.37305,0.646562 -2.575,1.556372 -3.59675,2.728352 -1.02171,1.17187 -1.82108,2.581265 -2.39584,4.238163 -0.5747,1.656914 -0.85865,3.495552 -0.85865,5.516148 0,1.939706 0.30005,3.721362 0.90669,5.337823 0.63858,1.616504 1.48625,3.012727 2.53995,4.184664 1.05363,1.171937 2.24969,2.100783 3.59074,2.787792 1.37306,0.646572 2.79451,0.968894 4.26326,0.968894 h 23.27981 c 7.40772,0 11.10849,-4.530088 11.10849,-13.582325 0,-2.020532 -0.28394,-3.834242 -0.85865,-5.450761 -0.54289,-1.616442 -1.31,-2.993665 -2.29976,-4.125223 -0.95793,-1.171876 -2.12173,-2.062729 -3.49468,-2.668911 -1.34104,-0.606229 -2.82695,-0.909451 -4.4554,-0.909451 z m 95.47303,0.255584 c -3.87821,0 -5.81845,1.939672 -5.81845,5.819297 v 6.425601 2.365759 6.425599 c 0,3.879508 1.94024,5.819299 5.81845,5.819299 3.24687,0.0088 5.65929,-0.01035 8.32837,0 h 23.82022 c 4.6946,0 7.04339,-1.87675 7.04339,-5.635031 0,-1.616534 -0.59352,-2.930634 -1.77736,-3.940955 -1.18392,-1.010342 -2.93926,-1.515749 -5.26603,-1.515749 H 214.09583 V 28.2109 h 26.45624 c 2.32677,0 4.08211,-0.505431 5.26603,-1.515749 1.18384,-1.010241 1.77736,-2.324527 1.77736,-3.940955 0,-3.758281 -2.34879,-5.640975 -7.04339,-5.640975 h -23.82022 c -3.35845,0.0319 -5.78631,0.02009 -8.32837,1e-6 z M 11.032505,26.51088 h 27.440989 v 5.498313 H 11.032505 Z m 149.760555,1.194769 h 27.441 v 5.498313 h -27.441 z m -50.25845,0.249652 h 28.16755 v 4.666137 h -28.16755 z"
     id="path2126"/>
</svg>
